<?xml version="1.0" encoding="UTF-8" standalone="no"?>
<!-- Created with Inkscape (http://www.inkscape.org/) -->

<svg width="500" height="500" viewBox="0 0 132.29167 132.29167" version="1.1" id="svg5" sodipodi:docname="svicen-favicon-animation.svg"
   xmlns:inkscape="http://www.inkscape.org/namespaces/inkscape"
   xmlns:sodipodi="http://sodipodi.sourceforge.net/DTD/sodipodi-0.dtd"
   xmlns="http://www.w3.org/2000/svg"
   xmlns:svg="http://www.w3.org/2000/svg">
   <defs id="defs2" />
   <g inkscape:label="Слой 1" inkscape:groupmode="layer" id="layer1">

      <style>
.g-flame {
  animation: example 2s steps(7) infinite;
}

@keyframes example {
  from  {transform:translate(0, 0);}
  to {transform:translate(-925px, 0);}
}
      </style>

      <!-- GROUP II -->

      <g id="g-bg" transform="translate(367.62327,78.79524)">
         <path id="path24868-9-0-0" data-name="path900" class="ec39f011-51a2-4d93-b7ec-f5cc24580c17" d="M -339.56673,39.517703 L -365.7937,-6.0044 a 13.607655,13.607655 0 0 1 0,-13.630081 l 26.22697,-45.522097 a 13.670549,13.670549 0 0 1 11.82416,-6.83303 h 52.48986 a 13.670549,13.670549 0 0 1 11.82413,6.83303 l 26.26741,45.508597 a 13.607655,13.607655 0 0 1 0,13.630133 l -26.24493,45.544521 a 13.666057,13.666057 0 0 1 -11.82416,6.83753 h -52.48986 a 13.684026,13.684026 0 0 1 -11.84661,-6.83753 z" style="fill:#f45d00;fill-opacity:1;stroke-width:0.449246" />
         <path style="fill:#ffffff;fill-opacity:1;stroke-width:0.545235" d="m -301.5476,35.249363 c -0.42781,0 -0.85412,0.16034 -1.42868,0.47978 c -1.97338,1.09672 -2.48471,2.66104 -2.78385,8.51593 l -0.12696,2.44573 h 8.67898 l -0.12429,-2.44573 c -0.29867,-5.85489 -0.8132,-7.41921 -2.78653,-8.51593 c -0.57461,-0.31932 -1.00091,-0.47978 -1.42867,-0.47978 z" id="path2676-4" />
      </g>

      <!-- GROUP II -->

      <g class="g-flame">
         <path style="fill:#ffffff;fill-opacity:1;stroke-width:0.545235" d="m 61.309799,17.722117 c -0.66327,0.0155 -1.25622,0.3347 -1.95391,0.9128 c -1.63672,1.35659 -1.7791,1.99517 -2.24927,10.12102 c -0.68276,11.79884 -2.67183,17.06987 -10.622187,28.12851 c -6.37968,8.87388 -7.52545,10.97473 -8.88881,16.29145 c -3.98831,15.5534 0.98294,31.338773 12.26872,38.953863 c 3.40384,2.29674 4.243347,2.61639 6.215877,2.37088 c 1.82812,-0.22777 2.61051,-0.72365 3.93588,-2.50186 c 2.34934,-3.15214 2.57868,-6.55052 0.83395,-12.294113 c -1.77322,-5.83776 -1.79147,-10.64423 -0.0601,-15.18622 c 0.69507,-1.82374 1.4654,-3.31576 1.71335,-3.31576 c 0.24796,0 0.76901,0.82432 1.15737,1.83229 c 0.38837,1.00798 2.05352,4.2062 3.70066,7.10596 c 3.97338,6.99529 4.09056,7.3441 4.09225,12.335563 c 2.4e-4,0.59567 0.023,1.15727 0.0561,1.70265 l -0.0615,-0.3849 c 0.0176,0.135 0.0398,0.26463 0.0615,0.39425 c 0.32471,5.3016 2.20879,8.24351 5.7802,9.02111 c 4.24931,0.92518 13.179,-8.38107 16.18588,-16.868823 c 2.08411,-5.88294 2.60083,-9.41793 2.58204,-17.66401 c -0.0186,-8.61453 -1.31314,-15.41817 -4.50387,-23.65269 c -4.8189,-12.43657 -14.60814,-25.71514 -25.51439,-34.60767 c -2.32013,-1.89176 -3.62424,-2.7182 -4.72973,-2.6943 z" id="path78675-8-7-3-9" />
         <path style="fill:#ffffff;fill-opacity:1;stroke-width:0.49839" d="m 194.32657,17.359953 c -0.55419,0.0155 -1.04963,0.3347 -1.63258,0.9128 c -1.36756,1.35659 -1.48652,1.99517 -1.87937,10.12102 c -0.57048,11.79884 -2.23244,17.069874 -8.87533,28.128514 c -5.33052,8.873877 -6.28786,10.974727 -7.42702,16.291447 c -3.33241,15.5534 0.8213,31.338776 10.25109,38.953866 c 2.84407,2.29674 3.54551,2.61639 5.19366,2.37088 c 1.52747,-0.22777 2.1812,-0.72365 3.28861,-2.50186 c 1.96298,-3.15214 2.1546,-6.55052 0.6968,-12.294116 c -1.48161,-5.83776 -1.49686,-10.64423 -0.0502,-15.18622 c 0.58077,-1.82374 1.22441,-3.31576 1.43159,-3.31576 c 0.20718,0 0.64254,0.82432 0.96703,1.83229 c 0.3245,1.00798 1.71581,4.2062 3.09208,7.10596 c 3.31994,6.99529 3.41785,7.3441 3.41926,12.335566 c 2e-4,0.59567 0.0192,1.15727 0.0469,1.70265 l -0.0514,-0.3849 c 0.0147,0.135 0.0333,0.26463 0.0514,0.39425 c 0.27131,5.3016 1.84555,8.24351 4.82963,9.02111 c 3.55049,0.92518 11.01166,-8.38107 13.52405,-16.868826 c 1.74137,-5.88294 2.17312,-9.41793 2.15742,-17.66401 c -0.0155,-8.61453 -1.09719,-15.41817 -3.7632,-23.652687 C 215.57058,42.225353 207.39122,28.946783 198.27854,20.054253 c -1.93858,-1.89176 -3.02822,-2.7182 -3.95191,-2.6943 z" id="path78675-8-7-3-9-29" />
         <path style="fill:#ffffff;fill-opacity:1;stroke-width:0.458314" d="m 327.11327,20.873654 c -0.48629,0.0149 -0.92102,0.32256 -1.43255,0.87969 c -1.2,1.30737 -1.30439,1.92278 -1.64911,9.75382 c -0.50058,11.37077 -1.95891,16.45057 -7.7879,27.107999 c -4.67741,8.551927 -5.51746,10.576557 -6.51705,15.700383 c -2.92411,14.989113 0.72068,30.201784 8.99511,37.540594 c 2.49561,2.21341 3.1111,2.52146 4.55732,2.28486 c 1.34032,-0.21951 1.91395,-0.69739 2.88568,-2.41109 c 1.72247,-3.03778 1.89062,-6.31286 0.61143,-11.848074 c -1.30008,-5.625963 -1.31346,-10.258051 -0.044,-14.635255 c 0.50961,-1.757573 1.07439,-3.195462 1.25619,-3.195462 c 0.18179,0 0.56381,0.794414 0.84854,1.765814 c 0.28475,0.97141 1.50559,4.053596 2.71324,6.848151 c 2.91317,6.741496 2.99908,7.077651 3.00032,11.888016 c 1.8e-4,0.57406 0.0169,1.11529 0.0412,1.64088 l -0.0451,-0.37093 c 0.0129,0.1301 0.0292,0.25502 0.0451,0.37994 c 0.23807,5.10926 1.61943,7.94443 4.2379,8.69382 c 3.11547,0.89161 9.66248,-8.077 11.86705,-16.25681 c 1.52801,-5.669504 1.90687,-9.076242 1.89309,-17.023149 C 352.57613,71.314862 351.62697,64.758062 349.2876,56.82229 C 345.75452,44.836924 338.57731,32.040114 330.58114,23.470204 c -1.70106,-1.82312 -2.6572,-2.61958 -3.46772,-2.59655 z" id="path78675-8-7-3-9-29-2" />
         <path style="fill:#ffffff;fill-opacity:1;stroke-width:0.411752" d="m 459.80458,29.30656 c -0.43149,0.0136 -0.81723,0.29341 -1.27111,0.8002 c -1.06478,1.18924 -1.1574,1.74905 -1.46327,8.87255 c -0.44417,10.34341 -1.73816,14.96423 -6.91028,24.658738 c -4.1503,7.779247 -4.89568,9.620949 -5.78263,14.281829 c -2.59459,13.634819 0.63946,27.473013 7.98144,34.148743 c 2.21437,2.01343 2.76051,2.29365 4.04375,2.07843 c 1.18928,-0.19968 1.69827,-0.63439 2.56049,-2.19325 c 1.52836,-2.76331 1.67756,-5.74249 0.54252,-10.77758 c -1.15357,-5.117654 -1.16544,-9.331224 -0.0391,-13.312944 c 0.45218,-1.59877 0.95332,-2.90675 1.11462,-2.90675 c 0.16131,0 0.50028,0.72264 0.75293,1.60627 c 0.25265,0.88364 1.33592,3.68735 2.40747,6.22941 c 2.58489,6.1324 2.66112,6.43818 2.66222,10.813924 c 1.5e-4,0.5222 0.0149,1.01452 0.0365,1.49262 l -0.04,-0.33742 c 0.0114,0.11835 0.0259,0.23199 0.04,0.34562 c 0.21124,4.64763 1.43694,7.22664 3.76032,7.90832 c 2.76439,0.81105 8.57361,-7.34723 10.52974,-14.787984 c 1.35582,-5.15726 1.69198,-8.25619 1.67975,-15.48509 c -0.0121,-7.551887 -0.85426,-13.516269 -2.93,-20.735023 C 476.345,51.10471 469.97661,39.4641 462.88153,31.6685 c -1.50937,-1.6584 -2.35775,-2.38289 -3.07693,-2.36194 z" id="path78675-8-7-3-9-29-7" />
         <path style="fill:#ffffff;fill-opacity:1;stroke-width:0.545235" d="m 996.9534,17.359947 c 0.66327,0.0155 1.25622,0.3347 1.95391,0.9128 c 1.63669,1.35659 1.77909,1.99517 2.24919,10.12102 c 0.6828,11.79884 2.6719,17.06987 10.6222,28.128515 c 6.3797,8.87388 7.5255,10.97473 8.8888,16.29145 c 3.9883,15.5534 -0.9829,31.338778 -12.2687,38.953868 c -3.4038,2.29674 -4.2433,2.61639 -6.2159,2.37088 c -1.8281,-0.22777 -2.61043,-0.72365 -3.9358,-2.50186 c -2.34934,-3.15214 -2.57868,-6.55052 -0.83395,-12.294118 c 1.77322,-5.83776 1.79147,-10.64423 0.0601,-15.18622 c -0.69507,-1.82374 -1.4654,-3.31576 -1.71335,-3.31576 c -0.24796,0 -0.76901,0.82432 -1.15737,1.83229 c -0.38837,1.00798 -2.05352,4.2062 -3.70066,7.10596 c -3.97338,6.99529 -4.09056,7.3441 -4.09225,12.335568 c -2.4e-4,0.59567 -0.023,1.15727 -0.0561,1.70265 l 0.0615,-0.3849 c -0.0176,0.135 -0.0398,0.26463 -0.0615,0.39425 c -0.32471,5.3016 -2.20879,8.24351 -5.7802,9.02111 c -4.24931,0.92518 -13.179,-8.38107 -16.18588,-16.868828 c -2.08411,-5.88294 -2.60083,-9.41793 -2.58204,-17.66401 c 0.0186,-8.61453 1.31314,-15.41817 4.50387,-23.652695 c 4.8189,-12.43657 14.60814,-25.71515 25.51439,-34.60768 c 2.32013,-1.89176 3.62424,-2.7182 4.72973,-2.6943 z" id="path78675-8-7-3-9-23-8" />
         <path style="fill:#ffffff;fill-opacity:1;stroke-width:0.49839" d="m 863.86641,17.359955 c 0.55419,0.0155 1.04963,0.3347 1.63258,0.9128 c 1.36756,1.35659 1.48652,1.99517 1.87937,10.12102 c 0.57048,11.79884 2.23244,17.06987 8.87533,28.128513 c 5.33052,8.873877 6.28786,10.974727 7.42702,16.291447 c 3.33241,15.5534 -0.8213,31.338775 -10.25109,38.953865 c -2.84407,2.29674 -3.54551,2.61639 -5.19366,2.37088 c -1.52747,-0.22777 -2.1812,-0.72365 -3.28861,-2.50186 c -1.96298,-3.15214 -2.1546,-6.55052 -0.6968,-12.294115 c 1.48161,-5.83776 1.49686,-10.64423 0.0502,-15.18622 c -0.58077,-1.82374 -1.22441,-3.31576 -1.43159,-3.31576 c -0.20718,0 -0.64254,0.82432 -0.96703,1.83229 c -0.3245,1.00798 -1.71581,4.2062 -3.09208,7.10596 c -3.31994,6.99529 -3.41785,7.3441 -3.41926,12.335565 c -2e-4,0.59567 -0.0192,1.15727 -0.0469,1.70265 l 0.0514,-0.3849 c -0.0147,0.135 -0.0333,0.26463 -0.0514,0.39425 c -0.27131,5.3016 -1.84555,8.24351 -4.82963,9.02111 c -3.55049,0.92518 -11.01166,-8.38107 -13.52405,-16.868825 c -1.74137,-5.88294 -2.17312,-9.41793 -2.15742,-17.66401 c 0.0155,-8.61453 1.09719,-15.41817 3.7632,-23.65269 c 4.02641,-12.43657 12.20577,-25.71514 21.31845,-34.60767 c 1.93858,-1.89176 3.02822,-2.7182 3.95191,-2.6943 z" id="path78675-8-7-3-9-29-0" />
         <path style="fill:#ffffff;fill-opacity:1;stroke-width:0.458314" d="m 731.07974,20.873648 c 0.48629,0.0149 0.92102,0.32256 1.43255,0.87969 c 1.2,1.307371 1.30439,1.922771 1.64911,9.75382 c 0.50058,11.37077 1.95891,16.45057 7.7879,27.108002 c 4.67741,8.551927 5.51746,10.576557 6.51705,15.700383 c 2.92411,14.989113 -0.72068,30.201787 -8.99511,37.540597 c -2.49561,2.21341 -3.1111,2.52147 -4.55732,2.28486 c -1.34032,-0.2195 -1.91395,-0.69739 -2.88568,-2.41109 c -1.72247,-3.03778 -1.89062,-6.31286 -0.61143,-11.848077 c 1.30008,-5.625963 1.31346,-10.258051 0.044,-14.635255 c -0.50961,-1.757573 -1.07439,-3.195462 -1.25619,-3.195462 c -0.18179,0 -0.56381,0.794414 -0.84854,1.765814 c -0.28475,0.97141 -1.50559,4.053596 -2.71324,6.848151 c -2.91317,6.741496 -2.99908,7.077651 -3.00032,11.888029 c -1.8e-4,0.57406 -0.0169,1.11528 -0.0412,1.64087 l 0.0451,-0.37093 c -0.0129,0.1301 -0.0292,0.25503 -0.0451,0.37994 c -0.23807,5.10926 -1.61943,7.94443 -4.2379,8.69382 c -3.11547,0.89162 -9.66248,-8.077 -11.86705,-16.256813 c -1.52801,-5.669504 -1.90687,-9.076242 -1.89309,-17.023149 c 0.0136,-8.301989 0.96276,-14.858789 3.30213,-22.794561 c 3.53308,-11.985369 10.71029,-24.782179 18.70646,-33.352088 c 1.70106,-1.823121 2.6572,-2.619591 3.46772,-2.596551 z" id="path78675-8-7-3-9-29-2-1" />
         <path style="fill:#ffffff;fill-opacity:1;stroke-width:0.411752" d="m 598.38843,29.306557 c 0.43149,0.0136 0.81723,0.29341 1.27111,0.8002 c 1.06478,1.18924 1.1574,1.74905 1.46327,8.87255 c 0.44417,10.34341 1.73816,14.96423 6.91028,24.658741 c 4.1503,7.779247 4.89568,9.620949 5.78263,14.281829 c 2.59459,13.634823 -0.63946,27.473003 -7.98144,34.148743 c -2.21437,2.01343 -2.76051,2.29365 -4.04375,2.07842 c -1.18928,-0.19967 -1.69827,-0.63438 -2.56049,-2.19325 c -1.52836,-2.76331 -1.67756,-5.74248 -0.54252,-10.77758 c 1.15357,-5.117645 1.16544,-9.331217 0.0391,-13.312933 c -0.45218,-1.598774 -0.95332,-2.906748 -1.11462,-2.906748 c -0.16131,0 -0.50028,0.722637 -0.75293,1.606269 c -0.25265,0.883642 -1.33592,3.687348 -2.40747,6.229411 c -2.58489,6.132392 -2.66112,6.438175 -2.66222,10.813921 c -1.5e-4,0.52219 -0.0149,1.01452 -0.0365,1.49262 l 0.04,-0.33742 c -0.0114,0.11835 -0.0259,0.23199 -0.04,0.34562 c -0.21124,4.64762 -1.43694,7.22663 -3.76032,7.90831 c -2.76439,0.81106 -8.57361,-7.34723 -10.52974,-14.787978 C 576.107,93.070027 575.77084,89.971093 575.78307,82.7422 c 0.0121,-7.551891 0.85426,-13.516273 2.93,-20.735027 c 3.13494,-10.902466 9.50333,-22.543076 16.59841,-30.338676 c 1.50937,-1.6584 2.35775,-2.38289 3.07693,-2.36194 z" id="path78675-8-7-3-9-29-7-1" />
      </g>
   </g>
</svg>
