<?xml version="1.0" encoding="UTF-8" standalone="no"?>
<!-- Created with Inkscape (http://www.inkscape.org/) -->

<svg
   width="500"
   height="500"
   viewBox="0 0 132.29167 132.29167"
   version="1.1"
   id="svg5"
   inkscape:version="1.1 (c68e22c387, 2021-05-23)"
   sodipodi:docname="5.svg"
   xmlns:inkscape="http://www.inkscape.org/namespaces/inkscape"
   xmlns:sodipodi="http://sodipodi.sourceforge.net/DTD/sodipodi-0.dtd"
   xmlns="http://www.w3.org/2000/svg"
   xmlns:svg="http://www.w3.org/2000/svg">
  <sodipodi:namedview
     id="namedview7"
     pagecolor="#2e2e2e"
     bordercolor="#666666"
     borderopacity="1.0"
     inkscape:pageshadow="2"
     inkscape:pageopacity="0"
     inkscape:pagecheckerboard="false"
     inkscape:document-units="px"
     showgrid="false"
     units="px"
     showborder="true"
     borderlayer="false"
     inkscape:showpageshadow="true"
     inkscape:snap-bbox="true"
     inkscape:bbox-paths="true"
     inkscape:bbox-nodes="true"
     inkscape:snap-bbox-edge-midpoints="true"
     inkscape:snap-bbox-midpoints="true"
     inkscape:object-paths="true"
     inkscape:snap-intersection-paths="true"
     inkscape:snap-smooth-nodes="true"
     inkscape:snap-midpoints="true"
     inkscape:snap-object-midpoints="true"
     inkscape:snap-center="true"
     inkscape:snap-text-baseline="true"
     inkscape:snap-page="true"
     showguides="true"
     inkscape:guide-bbox="true"
     inkscape:zoom="0.2662257"
     inkscape:cx="-105.17392"
     inkscape:cy="30.049691"
     inkscape:current-layer="layer1" />
  <defs
     id="defs2">
    <style
       id="style822">transform:translate(-729px, 0);transform:translate(0, 0);.g-flame { animation: example 5s steps(11) reverse infinite; }
.example { from }
</style>
  </defs>
  <g
     inkscape:label="Слой 1"
     inkscape:groupmode="layer"
     id="layer1">
    <g
       id="g-bg"
       transform="translate(367.62326,78.958537)">
      <path
         id="path24868-9-0-0"
         data-name="path900"
         class="ec39f011-51a2-4d93-b7ec-f5cc24580c17"
         d="M -339.56673,39.517703 L -365.7937,-6.0044 a 13.607655,13.607655 0 0 1 0,-13.630081 l 26.22697,-45.522097 a 13.670549,13.670549 0 0 1 11.82416,-6.83303 h 52.48986 a 13.670549,13.670549 0 0 1 11.82413,6.83303 l 26.26741,45.508597 a 13.607655,13.607655 0 0 1 0,13.630133 l -26.24493,45.544521 a 13.666057,13.666057 0 0 1 -11.82416,6.83753 h -52.48986 a 13.684026,13.684026 0 0 1 -11.84661,-6.83753 z"
         style="fill:#f45d00;fill-opacity:1;stroke-width:0.449246" />
      <path
         style="fill:#ffffff;fill-opacity:1;stroke-width:0.545235"
         d="m -301.5476,35.249363 c -0.42781,0 -0.85412,0.16034 -1.42868,0.47978 c -1.97338,1.09672 -2.48471,2.66104 -2.78385,8.51593 l -0.12696,2.44573 h 8.67898 l -0.12429,-2.44573 c -0.29867,-5.85489 -0.8132,-7.41921 -2.78653,-8.51593 c -0.57461,-0.31932 -1.00091,-0.47978 -1.42867,-0.47978 z"
         id="path2676-4" />
    </g>
    <path
       style="fill:#ffffff;fill-opacity:1;stroke-width:0.411752"
       d="m 69.221754,29.306554 c 0.43149,0.0136 0.81723,0.29341 1.27111,0.8002 c 1.06478,1.18924 1.1574,1.74905 1.46327,8.87255 c 0.44417,10.343409 1.73816,14.964229 6.91028,24.65874 c 4.1503,7.779246 4.89568,9.620946 5.78263,14.281826 c 2.59459,13.63483 -0.63946,27.473 -7.98144,34.14875 c -2.21437,2.01343 -2.76051,2.29365 -4.04375,2.07842 c -1.18928,-0.19967 -1.69827,-0.63438 -2.56049,-2.19325 c -1.52836,-2.76332 -1.67756,-5.74248 -0.54252,-10.77758 c 1.15357,-5.11764 1.16544,-9.33122 0.0391,-13.31294 c -0.45218,-1.59877 -0.95332,-2.90675 -1.11462,-2.90675 c -0.16131,0 -0.50028,0.72264 -0.75293,1.60627 c -0.25265,0.88365 -1.33592,3.68735 -2.40747,6.22942 c -2.58489,6.13239 -2.66112,6.43817 -2.66222,10.81392 c -1.5e-4,0.52219 -0.0149,1.01452 -0.0365,1.49262 l 0.04,-0.33742 c -0.0114,0.11835 -0.0259,0.23199 -0.04,0.34562 c -0.21124,4.64762 -1.43694,7.22663 -3.76032,7.90831 c -2.76439,0.81106 -8.57361,-7.34723 -10.52974,-14.78798 c -1.35582,-5.15725 -1.69198,-8.25619 -1.67975,-15.48508 c 0.0121,-7.5519 0.85426,-13.516277 2.93,-20.735031 c 3.13494,-10.902466 9.50333,-22.543075 16.59841,-30.338675 c 1.50937,-1.6584 2.35775,-2.38289 3.07693,-2.36194 z"
       id="path78675-8-7-3-9-29-7-1" />
  </g>
</svg>
