<?xml version="1.0" encoding="UTF-8" standalone="no"?>
<!-- Created with Inkscape (http://www.inkscape.org/) -->

<svg
   width="500"
   height="500"
   viewBox="0 0 132.29167 132.29167"
   version="1.1"
   id="svg5"
   inkscape:version="1.1 (c68e22c387, 2021-05-23)"
   sodipodi:docname="7.svg"
   xmlns:inkscape="http://www.inkscape.org/namespaces/inkscape"
   xmlns:sodipodi="http://sodipodi.sourceforge.net/DTD/sodipodi-0.dtd"
   xmlns="http://www.w3.org/2000/svg"
   xmlns:svg="http://www.w3.org/2000/svg">
  <sodipodi:namedview
     id="namedview7"
     pagecolor="#2e2e2e"
     bordercolor="#666666"
     borderopacity="1.0"
     inkscape:pageshadow="2"
     inkscape:pageopacity="0"
     inkscape:pagecheckerboard="false"
     inkscape:document-units="px"
     showgrid="false"
     units="px"
     showborder="true"
     borderlayer="false"
     inkscape:showpageshadow="true"
     inkscape:snap-bbox="true"
     inkscape:bbox-paths="true"
     inkscape:bbox-nodes="true"
     inkscape:snap-bbox-edge-midpoints="true"
     inkscape:snap-bbox-midpoints="true"
     inkscape:object-paths="true"
     inkscape:snap-intersection-paths="true"
     inkscape:snap-smooth-nodes="true"
     inkscape:snap-midpoints="true"
     inkscape:snap-object-midpoints="true"
     inkscape:snap-center="true"
     inkscape:snap-text-baseline="true"
     inkscape:snap-page="true"
     showguides="true"
     inkscape:guide-bbox="true"
     inkscape:zoom="0.53245141"
     inkscape:cx="144.61414"
     inkscape:cy="336.18091"
     inkscape:current-layer="layer1" />
  <defs
     id="defs2">
    <style
       id="style822">transform:translate(-729px, 0);transform:translate(0, 0);.g-flame { animation: example 5s steps(11) reverse infinite; }
.example { from }
</style>
  </defs>
  <g
     inkscape:label="Слой 1"
     inkscape:groupmode="layer"
     id="layer1">
    <g
       id="g-bg"
       transform="translate(367.62326,78.958537)">
      <path
         id="path24868-9-0-0"
         data-name="path900"
         class="ec39f011-51a2-4d93-b7ec-f5cc24580c17"
         d="M -339.56673,39.517703 L -365.7937,-6.0044 a 13.607655,13.607655 0 0 1 0,-13.630081 l 26.22697,-45.522097 a 13.670549,13.670549 0 0 1 11.82416,-6.83303 h 52.48986 a 13.670549,13.670549 0 0 1 11.82413,6.83303 l 26.26741,45.508597 a 13.607655,13.607655 0 0 1 0,13.630133 l -26.24493,45.544521 a 13.666057,13.666057 0 0 1 -11.82416,6.83753 h -52.48986 a 13.684026,13.684026 0 0 1 -11.84661,-6.83753 z"
         style="fill:#f45d00;fill-opacity:1;stroke-width:0.449246" />
      <path
         style="fill:#ffffff;fill-opacity:1;stroke-width:0.545235"
         d="m -301.5476,35.249363 c -0.42781,0 -0.85412,0.16034 -1.42868,0.47978 c -1.97338,1.09672 -2.48471,2.66104 -2.78385,8.51593 l -0.12696,2.44573 h 8.67898 l -0.12429,-2.44573 c -0.29867,-5.85489 -0.8132,-7.41921 -2.78653,-8.51593 c -0.57461,-0.31932 -1.00091,-0.47978 -1.42867,-0.47978 z"
         id="path2676-4" />
    </g>
    <path
       style="fill:#ffffff;fill-opacity:1;stroke-width:0.49839"
       d="m 70.11642,17.359952 c 0.55419,0.0155 1.04963,0.3347 1.63258,0.9128 c 1.36756,1.35659 1.48652,1.99517 1.87937,10.12102 c 0.57048,11.79884 2.23244,17.06987 8.87533,28.12851 c 5.33052,8.873877 6.28786,10.974729 7.42702,16.291449 c 3.33241,15.5534 -0.8213,31.338779 -10.25109,38.953869 c -2.84407,2.29674 -3.54551,2.61639 -5.19366,2.37088 c -1.52747,-0.22777 -2.1812,-0.72365 -3.28861,-2.50186 c -1.96298,-3.15214 -2.1546,-6.55052 -0.6968,-12.294119 c 1.48161,-5.83775 1.49686,-10.64423 0.0502,-15.18622 c -0.58077,-1.82374 -1.22441,-3.31576 -1.43159,-3.31576 c -0.20718,0 -0.64254,0.82432 -0.96703,1.83229 c -0.3245,1.00798 -1.71581,4.2062 -3.09208,7.10596 c -3.31994,6.9953 -3.41785,7.34411 -3.41926,12.335569 c -2e-4,0.59567 -0.0192,1.15727 -0.0469,1.70265 l 0.0514,-0.3849 c -0.0147,0.135 -0.0333,0.26463 -0.0514,0.39425 c -0.27131,5.3016 -1.84555,8.24351 -4.82963,9.02111 c -3.55049,0.92518 -11.01166,-8.38107 -13.52405,-16.868819 c -1.74137,-5.88295 -2.17312,-9.41794 -2.15742,-17.66402 c 0.0155,-8.61453 1.09719,-15.418172 3.7632,-23.652692 C 48.87241,42.225352 57.05177,28.946782 66.16445,20.054252 c 1.93858,-1.89176 3.02822,-2.7182 3.95191,-2.6943 z"
       id="path78675-8-7-3-9-29-0" />
  </g>
</svg>
